<?xml version="1.0" standalone="no"?>
<!DOCTYPE svg PUBLIC "-//W3C//DTD SVG 20010904//EN"
 "http://www.w3.org/TR/2001/REC-SVG-20010904/DTD/svg10.dtd">
<svg version="1.0" xmlns="http://www.w3.org/2000/svg"
 width="1024.000000pt" height="1024.000000pt" viewBox="0 0 1024.000000 1024.000000"
 preserveAspectRatio="xMidYMid meet">
<metadata>
Created by potrace 1.14, written by Peter Selinger 2001-2017
</metadata>
<g transform="translate(0.000000,1024.000000) scale(0.100000,-0.100000)"
fill="#000000" stroke="none">
<path d="M4078 8706 c-1 -2 -61 -6 -133 -10 -71 -3 -141 -8 -155 -11 -14 -2
-45 -7 -70 -9 -70 -8 -237 -42 -320 -66 -41 -12 -79 -22 -85 -23 -5 -2 -39
-13 -75 -26 -344 -122 -658 -324 -941 -602 -119 -117 -173 -180 -271 -312 -37
-51 -71 -96 -76 -102 -8 -10 -43 -66 -75 -120 -78 -132 -224 -470 -242 -563
-1 -9 -10 -42 -19 -72 -8 -30 -17 -66 -20 -80 -2 -14 -9 -52 -15 -85 -15 -86
-19 -112 -26 -184 -13 -119 -14 -146 -16 -286 l-2 -141 -86 -33 c-141 -56
-374 -180 -456 -243 -5 -4 -44 -33 -85 -65 -133 -101 -292 -257 -405 -398 -16
-21 -39 -50 -51 -64 -155 -193 -335 -570 -385 -806 -7 -33 -14 -64 -15 -70
-60 -250 -64 -686 -10 -950 28 -139 38 -177 51 -215 9 -25 18 -52 20 -60 31
-127 146 -368 248 -520 84 -126 225 -298 310 -381 243 -235 447 -372 762 -510
90 -39 212 -74 410 -119 22 -5 67 -12 100 -15 33 -4 63 -9 66 -11 3 -1 64 -6
135 -10 158 -8 6111 -8 6210 0 140 11 338 47 444 81 94 29 280 104 300 120 8
7 26 16 40 20 14 4 36 16 49 26 13 11 28 19 33 19 6 0 20 8 33 18 12 9 33 24
45 32 240 159 494 420 647 665 36 57 143 269 143 283 0 5 7 23 16 40 20 40 81
249 89 304 4 24 8 45 10 49 2 3 7 32 10 65 3 32 9 68 12 79 9 31 11 363 2 440
-16 143 -21 170 -44 269 -90 375 -245 654 -529 956 -131 138 -391 332 -531
394 -22 10 -60 28 -85 41 -55 27 -259 97 -357 121 -40 10 -73 21 -73 25 0 4 7
25 15 48 21 61 52 196 60 266 4 33 9 69 11 80 6 32 5 265 -1 325 -26 248 -109
482 -238 675 -110 163 -276 330 -437 436 -135 89 -285 163 -375 185 -5 2 -35
10 -65 18 -30 9 -82 21 -115 26 -33 5 -71 12 -85 15 -52 12 -309 12 -405 0
-215 -27 -410 -94 -586 -201 -68 -41 -77 -42 -89 -9 -5 14 -14 25 -20 25 -5 0
-10 4 -10 10 0 11 -80 138 -101 160 -8 8 -34 42 -58 75 -66 89 -187 216 -315
332 -75 68 -263 209 -311 233 -5 3 -35 21 -65 41 -246 161 -646 306 -950 345
-25 3 -56 7 -70 10 -14 2 -86 6 -160 10 -74 3 -140 7 -147 9 -6 2 -13 2 -15 1z
m636 -1917 c67 -42 1787 -1765 1811 -1814 13 -27 19 -62 20 -105 0 -127 -79
-229 -199 -257 -12 -2 -263 -4 -558 -5 -400 0 -538 -3 -539 -11 0 -7 -1 -426
-2 -932 l-2 -920 -22 -41 c-29 -55 -83 -104 -135 -125 -38 -15 -92 -18 -463
-18 -469 -1 -506 3 -570 60 -34 32 -71 96 -81 140 -2 13 -5 434 -6 935 l-1
911 -526 0 c-289 0 -542 3 -562 7 -111 18 -185 95 -208 219 -10 55 -5 90 21
141 28 57 1744 1776 1813 1817 67 40 143 39 209 -2z"/>
</g>
</svg>
